<svg id="visual" width="900" height="600" xmlns="http://www.w3.org/2000/svg" version="1.1"><path fill="#f8f9fa" d="M0 0h900v600H0z"/><defs><linearGradient id="grad1_0" x1="33.3%" y1="0%" x2="100%" y2="100%"><stop offset="20%" stop-color="#f8f9fa"/><stop offset="80%" stop-color="#f8f9fa"/></linearGradient></defs><defs><linearGradient id="grad2_0" x1="0%" y1="0%" x2="66.7%" y2="100%"><stop offset="20%" stop-color="#f8f9fa"/><stop offset="80%" stop-color="#f8f9fa"/></linearGradient></defs><path d="M0 81.1c-9.9-2.8-19.8-5.6-29.8-9-10.1-3.5-20.2-7.7-27.6-14.7-7.4-7.1-12.1-17.1-15.6-27.2-3.5-10-5.8-20.1-8.1-30.2H0Z" fill="#e9ecef" transform="translate(900)"/><path d="M0-81.1c9 4.4 18 8.8 28.7 11.8s23.1 4.7 28.7 11.9c5.6 7.3 4.4 20.1 7.3 30.6C67.5-16.3 74.3-8.1 81.1 0H0Z" fill="#e9ecef" transform="translate(0 600)"/></svg>