<svg id="visual" width="960" height="540" xmlns="http://www.w3.org/2000/svg" version="1.1"><path fill="#f8f9fa" d="M0 0h960v540H0z"/><path d="m0 484 22.8-2.7c22.9-2.6 68.5-8 114.2-7.3 45.7.7 91.3 7.3 137 8 45.7.7 91.3-4.7 137.2-5 45.8-.3 91.8 4.3 137.6 2.2 45.9-2.2 91.5-11.2 137.2-16.7 45.7-5.5 91.3-7.5 137-4.2 45.7 3.4 91.3 12 114.2 16.4L960 479v62H0Z" fill="#f8f9fa"/><path d="m0 490 22.8-2.8c22.9-2.9 68.5-8.5 114.2-9.5s91.3 2.6 137 5.8c45.7 3.2 91.3 5.8 137.2 4 45.8-1.8 91.8-8.2 137.6-8 45.9.2 91.5 6.8 137.2 11 45.7 4.2 91.3 5.8 137 6.8s91.3 1.4 114.2 1.5l22.8.2v42H0Z" fill="#a9acae"/><path d="m0 488 22.8 4.3c22.9 4.4 68.5 13 114.2 13s91.3-8.6 137-8.8c45.7-.2 91.3 8.2 137.2 8.5 45.8.3 91.8-7.3 137.6-9.2 45.9-1.8 91.5 2.2 137.2 5.4 45.7 3.1 91.3 5.5 137 6s91.3-.9 114.2-1.5l22.8-.7v36H0Z" fill="#616468"/><path d="m0 516 22.8 1c22.9 1 68.5 3 114.2 2.7 45.7-.4 91.3-3 137-2s91.3 5.6 137.2 5.6c45.8 0 91.8-4.6 137.6-5 45.9-.3 91.5 3.7 137.2 4.5 45.7.9 91.3-1.5 137-2s91.3.9 114.2 1.5l22.8.7v18H0Z" fill="#212529"/></svg>