<svg id="visual" viewBox="0 0 900 600" width="900" height="600" xmlns="http://www.w3.org/2000/svg" xmlns:xlink="http://www.w3.org/1999/xlink" version="1.1"><rect x="0" y="0" width="900" height="600" fill="#f8f9fa"></rect><defs><linearGradient id="grad1_0" x1="33.3%" y1="0%" x2="100%" y2="100%"><stop offset="20%" stop-color="#f8f9fa" stop-opacity="1"></stop><stop offset="80%" stop-color="#f8f9fa" stop-opacity="1"></stop></linearGradient></defs><defs><linearGradient id="grad2_0" x1="0%" y1="0%" x2="66.7%" y2="100%"><stop offset="20%" stop-color="#f8f9fa" stop-opacity="1"></stop><stop offset="80%" stop-color="#f8f9fa" stop-opacity="1"></stop></linearGradient></defs><g transform="translate(900, 0)"><path d="M0 81.1C-9.9 78.3 -19.8 75.5 -29.8 72.1C-39.9 68.6 -50 64.4 -57.4 57.4C-64.8 50.3 -69.5 40.3 -73 30.2C-76.5 20.2 -78.8 10.1 -81.1 0L0 0Z" fill="#e9ecef"></path></g><g transform="translate(0, 600)"><path d="M0 -81.1C9 -76.7 18 -72.3 28.7 -69.3C39.4 -66.3 51.8 -64.6 57.4 -57.4C63 -50.1 61.8 -37.3 64.7 -26.8C67.5 -16.3 74.3 -8.1 81.1 0L0 0Z" fill="#e9ecef"></path></g></svg>