<svg id="visual" viewBox="0 0 960 540" width="960" height="540" xmlns="http://www.w3.org/2000/svg" xmlns:xlink="http://www.w3.org/1999/xlink" version="1.1"><rect x="0" y="0" width="960" height="540" fill="#f8f9fa"></rect><path d="M0 484L22.8 481.3C45.7 478.7 91.3 473.3 137 474C182.7 474.7 228.3 481.3 274 482C319.7 482.7 365.3 477.3 411.2 477C457 476.7 503 481.3 548.8 479.2C594.7 477 640.3 468 686 462.5C731.7 457 777.3 455 823 458.3C868.7 461.7 914.3 470.3 937.2 474.7L960 479L960 541L937.2 541C914.3 541 868.7 541 823 541C777.3 541 731.7 541 686 541C640.3 541 594.7 541 548.8 541C503 541 457 541 411.2 541C365.3 541 319.7 541 274 541C228.3 541 182.7 541 137 541C91.3 541 45.7 541 22.8 541L0 541Z" fill="#f8f9fa"></path><path d="M0 490L22.8 487.2C45.7 484.3 91.3 478.7 137 477.7C182.7 476.7 228.3 480.3 274 483.5C319.7 486.7 365.3 489.3 411.2 487.5C457 485.7 503 479.3 548.8 479.5C594.7 479.7 640.3 486.3 686 490.5C731.7 494.7 777.3 496.3 823 497.3C868.7 498.3 914.3 498.7 937.2 498.8L960 499L960 541L937.2 541C914.3 541 868.7 541 823 541C777.3 541 731.7 541 686 541C640.3 541 594.7 541 548.8 541C503 541 457 541 411.2 541C365.3 541 319.7 541 274 541C228.3 541 182.7 541 137 541C91.3 541 45.7 541 22.8 541L0 541Z" fill="#a9acae"></path><path d="M0 488L22.8 492.3C45.7 496.7 91.3 505.3 137 505.3C182.7 505.3 228.3 496.7 274 496.5C319.7 496.3 365.3 504.7 411.2 505C457 505.3 503 497.7 548.8 495.8C594.7 494 640.3 498 686 501.2C731.7 504.3 777.3 506.7 823 507.2C868.7 507.7 914.3 506.3 937.2 505.7L960 505L960 541L937.2 541C914.3 541 868.7 541 823 541C777.3 541 731.7 541 686 541C640.3 541 594.7 541 548.8 541C503 541 457 541 411.2 541C365.3 541 319.7 541 274 541C228.3 541 182.7 541 137 541C91.3 541 45.7 541 22.8 541L0 541Z" fill="#616468"></path><path d="M0 516L22.8 517C45.7 518 91.3 520 137 519.7C182.7 519.3 228.3 516.7 274 517.7C319.7 518.7 365.3 523.3 411.2 523.3C457 523.3 503 518.7 548.8 518.3C594.7 518 640.3 522 686 522.8C731.7 523.7 777.3 521.3 823 520.8C868.7 520.3 914.3 521.7 937.2 522.3L960 523L960 541L937.2 541C914.3 541 868.7 541 823 541C777.3 541 731.7 541 686 541C640.3 541 594.7 541 548.8 541C503 541 457 541 411.2 541C365.3 541 319.7 541 274 541C228.3 541 182.7 541 137 541C91.3 541 45.7 541 22.8 541L0 541Z" fill="#212529"></path></svg>